<?xml version="1.0" encoding="UTF-8"?>
<svg id="Layer_2" data-name="Layer 2" xmlns="http://www.w3.org/2000/svg" xmlns:xlink="http://www.w3.org/1999/xlink" viewBox="0 0 500.05 340.64">
  <defs>
    <style>
      .cls-1 {
        stroke: #2e7567;
      }

      .cls-1, .cls-2, .cls-3, .cls-4, .cls-5, .cls-6, .cls-7, .cls-8, .cls-9, .cls-10, .cls-11, .cls-12, .cls-13, .cls-14, .cls-15, .cls-16 {
        fill: none;
      }

      .cls-1, .cls-2, .cls-3, .cls-4, .cls-5, .cls-6, .cls-7, .cls-8, .cls-10, .cls-11, .cls-12, .cls-13, .cls-14, .cls-15, .cls-16 {
        stroke-miterlimit: 10;
      }

      .cls-17 {
        fill: #111119;
      }

      .cls-17, .cls-18, .cls-19, .cls-20, .cls-21, .cls-22, .cls-23, .cls-24, .cls-25, .cls-26, .cls-27, .cls-28, .cls-29, .cls-30, .cls-9, .cls-31, .cls-32, .cls-33, .cls-34, .cls-35, .cls-36, .cls-37, .cls-38, .cls-39, .cls-40, .cls-41, .cls-42, .cls-43, .cls-44, .cls-45, .cls-46, .cls-47, .cls-48, .cls-49, .cls-50 {
        stroke-width: 0px;
      }

      .cls-18 {
        fill: #3499f4;
      }

      .cls-2 {
        stroke: #4598d6;
      }

      .cls-2, .cls-10, .cls-12, .cls-13, .cls-14, .cls-16 {
        stroke-width: .85px;
      }

      .cls-19 {
        fill: #f7eee2;
      }

      .cls-20 {
        fill: #000002;
      }

      .cls-21 {
        fill: #1fdbdb;
      }

      .cls-3 {
        stroke-width: .81px;
      }

      .cls-3, .cls-7, .cls-8, .cls-10 {
        stroke: #231815;
      }

      .cls-22 {
        fill: #eaddce;
      }

      .cls-4 {
        stroke: #2b2923;
        stroke-width: 1.7px;
      }

      .cls-23 {
        fill: #4f9aed;
      }

      .cls-24 {
        fill: #2d2625;
      }

      .cls-5 {
        stroke: #604333;
      }

      .cls-5, .cls-6, .cls-11, .cls-15 {
        stroke-width: .84px;
      }

      .cls-25 {
        fill: #ffb992;
      }

      .cls-6 {
        stroke: #ff8a86;
      }

      .cls-26 {
        fill: #ff6800;
      }

      .cls-51 {
        clip-path: url(#clippath-2);
      }

      .cls-7 {
        stroke-width: 1.5px;
      }

      .cls-27 {
        fill: #22232d;
      }

      .cls-28 {
        fill: #2d2823;
      }

      .cls-8 {
        stroke-width: .85px;
      }

      .cls-29 {
        fill: #1e1a17;
      }

      .cls-30 {
        fill: #565350;
      }

      .cls-31 {
        fill: #31323f;
      }

      .cls-32 {
        fill: #f2a781;
      }

      .cls-33 {
        fill: #0a0807;
      }

      .cls-52 {
        clip-path: url(#clippath-1);
      }

      .cls-53 {
        clip-path: url(#clippath-4);
      }

      .cls-34 {
        fill: #368e7d;
      }

      .cls-11 {
        stroke: #e2640e;
      }

      .cls-35 {
        fill: #fff;
      }

      .cls-36 {
        fill: #eae0d3;
      }

      .cls-37 {
        fill: #ff8a86;
      }

      .cls-12, .cls-15 {
        stroke: #e5896c;
      }

      .cls-38 {
        fill: #397eb7;
      }

      .cls-39 {
        fill: #edb311;
      }

      .cls-13 {
        stroke: #f2ede7;
      }

      .cls-40 {
        fill: #14afaf;
      }

      .cls-54 {
        clip-path: url(#clippath);
      }

      .cls-14 {
        stroke: #ddcebc;
      }

      .cls-41 {
        fill: #e5896c;
      }

      .cls-55 {
        clip-path: url(#clippath-3);
      }

      .cls-42 {
        fill: #66625c;
      }

      .cls-43 {
        fill: #76838e;
      }

      .cls-44 {
        fill: #755642;
      }

      .cls-56 {
        clip-path: url(#clippath-5);
      }

      .cls-45 {
        fill: #514e4a;
      }

      .cls-46 {
        fill: #493a32;
      }

      .cls-47 {
        fill: #2c7c61;
      }

      .cls-16 {
        stroke: #514e4a;
      }

      .cls-48 {
        fill: #eaa07a;
      }

      .cls-49 {
        fill: #0db7bd;
      }

      .cls-50 {
        fill: #8c6b54;
      }
    </style>
    <clipPath id="clippath">
      <rect class="cls-9" x="347.55" y="111.33" width="20.38" height="19.39"/>
    </clipPath>
    <clipPath id="clippath-1">
      <path class="cls-9" d="M37.01,255.96s-3.4,14.29-3.11,19.53,3.68,28.16,3.11,33.12c-.57,4.95-3.4,12.74-3.82,16.98-.42,4.25,0,10.61,0,10.61h5.8l4.1-3.26,7.22,3.26h25.33s1.27-5.1-6.37-8.92c0,0-11.18-9.06-16.56-11.75l1.64-59.58h-17.35Z"/>
    </clipPath>
    <clipPath id="clippath-2">
      <path class="cls-9" d="M22.32,256.88s-3.4,14.29-3.11,19.53c.28,5.24,3.68,28.16,3.11,33.12-.57,4.95-3.4,12.74-3.82,16.98-.42,4.25,0,10.61,0,10.61h5.8l4.1-3.26,7.22,3.26h25.33s1.27-5.1-6.37-8.92c0,0-11.18-9.06-16.56-11.75l1.64-59.58h-17.35Z"/>
    </clipPath>
    <clipPath id="clippath-3">
      <path class="cls-9" d="M198.6,261.53s-9.41,34.91-10.24,38.47c-.84,3.55-2.93,14.63-1.67,16.31s14.91,12.33,16.65,14.22,1.43,5.85-7.14,5.12c-8.57-.73-18.5,0-18.5,0,0,0-2.3-8.26-4.08-8.26l-2.61,8.35h-4.49s-.52-11.69.52-14.41c1.05-2.72,3.87-6.06,3.87-6.06,0,0-1.57-44.32,2.82-51.64l24.88-2.09Z"/>
    </clipPath>
    <clipPath id="clippath-4">
      <path class="cls-9" d="M185.54,263.62s-9.41,34.91-10.24,38.47-2.93,14.63-1.67,16.31,14.91,12.33,16.65,14.22c1.74,1.88,1.43,5.85-7.14,5.12-8.57-.73-18.5,0-18.5,0,0,0-2.3-8.26-4.08-8.26l-2.61,8.35h-4.49s-.52-11.69.52-14.41c1.05-2.72,3.87-6.06,3.87-6.06,0,0-1.57-44.32,2.82-51.64l24.88-2.09Z"/>
    </clipPath>
    <clipPath id="clippath-5">
      <path class="cls-9" d="M111.32,231.07s-3.14,14.35,0,19.58c3.14,5.23,14.42,6.27,21.32,6.27s24.88,2.72,24.88,2.72c0,0-1.53,6.06-.98,6.69s35.26,5.64,50.1-6.27c3.35-2.3,0-19.86-4.39-26.34-4.39-6.48-17.14-13.09-28.43-14.91-11.29-1.82-30.1-1.19-30.1-1.19l-32.4,13.45Z"/>
    </clipPath>
  </defs>
  <g id="_图层_1" data-name="图层 1">
    <g>
      <rect class="cls-18" x="216.78" y="6.67" width="75.15" height="87.04"/>
      <rect class="cls-18" x="313.8" y="6.67" width="75.15" height="87.04"/>
      <rect class="cls-18" x="410.81" y="6.67" width="75.15" height="87.04"/>
    </g>
    <g>
      <path class="cls-31" d="M347.41,273.8h67.86c6.66,0,12.27-4.98,13.05-11.6l17.88-151.44s-.85-6.23-9.62-6.79c-8.77-.57-69.63,0-69.63,0l-19.53,169.83Z"/>
      <path class="cls-27" d="M446.2,110.76s-.39-2.79-3.29-4.81c-.38-.08-.76-.16-1.15-.22-2.89-.44-5.78.75-7.55,3.08-2.37,3.12-5.71,8.99-7.26,18.65-2.55,15.85-15.29,122.56-15.29,122.56h-61.52l-2.73,23.78h67.86c6.66,0,12.27-4.98,13.05-11.6l17.88-151.44Z"/>
      <rect class="cls-27" x="383.36" y="273.8" width="1.98" height="57.74"/>
      <path class="cls-27" d="M371.61,329.85h25.48c3.59,0,6.51,2.92,6.51,6.51h-38.5c0-3.59,2.92-6.51,6.51-6.51Z"/>
    </g>
    <g>
      <g class="cls-54">
        <rect class="cls-25" x="347.55" y="111.33" width="20.38" height="19.39"/>
        <path class="cls-48" d="M367.93,112.71s-4.61,10.23-20.63,9.66v-8.21l20.63-1.45Z"/>
      </g>
      <path class="cls-25" d="M342.88,50.19h15.85c10.31,0,18.68,8.37,18.68,18.68v25.05c0,12.89-10.46,23.35-23.35,23.35h-9.48c-11.25,0-20.38-9.13-20.38-20.38v-28.02c0-10.31,8.37-18.68,18.68-18.68Z"/>
      <ellipse class="cls-24" cx="349.74" cy="87.84" rx="2.19" ry="2.69"/>
      <path class="cls-10" d="M346.14,80.05s3.68-2.83,6.51,0"/>
      <rect class="cls-48" x="312.95" y="309.61" width="16.28" height="6.79"/>
      <rect class="cls-29" x="307.71" y="281.73" width="24.63" height="31.42"/>
      <path class="cls-29" d="M312.95,316.4s-17.41,6.37-20.24,9.34c-2.83,2.97-2.83,9.48-2.83,9.48h42.46s-.14-14.01-3.11-18.82h-16.28Z"/>
      <ellipse class="cls-24" cx="331.7" cy="87.84" rx="1.7" ry="2.69"/>
      <rect class="cls-25" x="328.73" y="313.01" width="16.28" height="6.79"/>
      <path class="cls-28" d="M328.73,318.53s-17.41,6.37-20.24,9.34c-2.83,2.97-2.83,9.48-2.83,9.48h42.46s-.14-14.01-3.11-18.82h-16.28Z"/>
      <path class="cls-10" d="M334.39,80.05s-2.55-2.26-4.95,0"/>
      <path class="cls-12" d="M338.35,88.52s-4.67,7.67-3.96,9.08c.71,1.42,3.11,2.26,3.11,2.26"/>
      <path class="cls-41" d="M343.59,104.25s4.81-2.97,6.16-1.98-.21,4.25-2.19,3.96-4.96-1.41-3.96-1.98Z"/>
      <rect class="cls-28" x="323.49" y="283.71" width="24.63" height="31.42"/>
      <path class="cls-24" d="M324.2,71.56s1.56-6.65,3.96-7.08c0,0,18.12,3.96,33.68,0,0,0,3.68,6.79,7.08,7.08,0,0-.57,13.23,8.49,11.5h4.67s2.12-24.24-1.84-29.05c-3.96-4.81-11.46-3.82-11.46-3.82,0,0-.71-7.22-19.39-6.09-18.68,1.13-23.49,12.6-24.48,16.28-.99,3.68-.71,11.18-.71,11.18Z"/>
      <path class="cls-25" d="M376.14,85.15s1.7-4.53,5.8-3.96,1.56,14.86-5.8,14.72v-10.76Z"/>
      <path class="cls-12" d="M379.11,89.39s-.25-3.8,2.26-4.25"/>
      <path class="cls-23" d="M347.55,123.64s2.12,6.09,6.79,7.08c0,0,10.76-2.26,13.59-7.08l19.53,12.31-3.82,73.03-33.54.71-11.18-59.58s3.4-22.5,8.63-26.47Z"/>
      <path class="cls-38" d="M349.39,134.97l4.95-4.25,5.66,6.09-1.27,6.37s-6.21-.99-8.48,0l-.86-8.21Z"/>
      <path class="cls-38" d="M350.25,143.17s-2.13,17.27-2.7,20.1c-.57,2.83,0,.85,0,.85l6.37,7.5,8.07-9.62-3.26-18.82s-5.79-1.42-8.48,0Z"/>
      <path class="cls-19" d="M347.55,123.64s-7.93,31.78,6.51,44.55c0,0,15.71-12.42,13.87-44.55,0,0,21.8,10.05,24.2,12.74,2.41,2.69,10.9,54.77,12.17,70.2s4.1,40.62.99,47.84c-3.11,7.22-50.81,13.45-50.81,13.45l1.27,22.36h-60.29s1.13-53.36,46.7-69.07c0,0-.28-5.38,4.25-5.8,0,0-11.32-46-12.03-58.03-.71-12.03,5.66-28.02,5.66-28.02l7.5-5.66Z"/>
      <path class="cls-22" d="M345.99,181.67s3.96-14.58,17.2-14.01l-3.18,10.61-14.01,3.4Z"/>
      <path class="cls-19" d="M340.05,129.3s-7.78,4.67-10.19,8.92c-2.41,4.25-24.91,37.93-25.9,39.91-.99,1.98,18.54,8.32,18.54,8.32l17.88-28.58s6.47-25.74-.33-28.58Z"/>
      <path class="cls-16" d="M347.3,121.02s-9.09,5.52-12.06,15.92-3.33,11.3-3.33,11.3"/>
      <path class="cls-14" d="M367.93,123.64s9.48,13.73,9.48,15.29c0,1.56-7.93,12.03-7.93,12.03,0,0,4.36,8.71,2.68,10.44-1.69,1.73-16.97,8.7-16.97,8.7"/>
      <path class="cls-16" d="M335.25,181.94s-9.06-4.4-9.48-8,.14-20.02.99-22c.85-1.98,3.13-3.82,6.01-3.68s4.96,2.69,4.99,6.23c.03,3.54-.39,18.82-1.81,20.52-1.42,1.7-6.27,6.49-8.39,6.93"/>
      <path class="cls-14" d="M347.55,123.64s-11.18,17.27-11.18,19.53,5.59,7.02,5.59,7.02c0,0-4.94,3.31-4.06,6,.88,2.69,13.9,13.91,13.9,13.91"/>
      <path class="cls-25" d="M356.61,180.68s-8.21-7.5-9.06-7.93-15.54-4.63-16.81-5.34c-1.27-.71-3-2.95-.88-4.28,0,0-1.01-1.16-.71-2.86s2.55-.82,2.55-.82c0,0-3.72-4.25.71-4.25,0,0,.35-3.28,3.9-2.41,3.54.87,10.12,3.87,11.25,3.26s.72-4.53,2.7-6.37,4.1-1.98,4.45,0c.35,1.98.21,6.73.64,7.4s.42,4.63,0,6.05l9.06,7.5s1.56,9.48-7.78,10.05Z"/>
      <path class="cls-19" d="M371.75,173.6s3.5-26.47,7.93-33.12c4.42-6.65,16.28-6.79,18.4,4.67,2.12,11.46-9.48,54.35-10.05,55.62-.57,1.27-7.93,5.38-14.15,2.26-6.23-3.11-27.88-21.37-27.88-21.37,0,0,14.86-3.4,17.2-14.01l8.56,5.94Z"/>
      <path class="cls-14" d="M363.19,167.66l8.56,5.94s3.5-26.47,7.93-33.12c2.35-3.53,6.79-5.23,10.76-4.33"/>
      <path class="cls-14" d="M396.26,165.96c-2.9,15.85-7.86,33.99-8.23,34.82-.57,1.27-7.93,5.38-14.15,2.26-6.23-3.11-27.88-21.37-27.88-21.37"/>
      <path class="cls-32" d="M322.5,186.45s1.03-5.49,2.99-4.78,5.47,7.71,1.39,8.35-4.39-3.57-4.39-3.57Z"/>
      <line class="cls-12" x1="332.41" y1="155.2" x2="343.39" y2="158.6"/>
      <line class="cls-12" x1="331.7" y1="159.45" x2="342.11" y2="163.35"/>
      <line class="cls-12" x1="329.86" y1="163.13" x2="338.92" y2="165.96"/>
      <path class="cls-14" d="M371.75,173.6s10.87,5.67,12.03,8.07,1.04,4.78,1.04,4.78"/>
      <path class="cls-19" d="M303.96,178.13s-4.68,5.7-1.42,12.53c3.26,6.83,6.79,7.27,6.79,7.27l13.16-11.47s-11.04-10.73-18.54-8.32Z"/>
      <path class="cls-14" d="M349.67,215.21s14.01-.71,19.81,1.56"/>
      <polygon class="cls-43" points="328.1 196.68 327.83 201.02 325.49 197.35 317.75 167.34 320.36 166.67 328.1 196.68"/>
      <path class="cls-25" d="M313.16,185.49s.28-3.54,2.69-3.82,7.36,3.91,9.2,4.78,4.51,6.25,3.81,7.25c-.7.99-2.96,0-2.96,0,0,0,.99,2.97-1.27,2.97s-1.7,0-1.7,0c0,0-.18,2.2-1.86,2.51,0,0-.83,2.86-2.81,2.86s-11.89-1.48-12.45-2.86c-.57-1.38.99-4.21.99-4.21,0,0-1.42-4.53,1.42-5.1,0,0-1.51-4.38,4.95-4.39Z"/>
      <path class="cls-12" d="M315.85,187.61s5.24,2.12,6.23,2.55,3.82,3.54,3.82,3.54"/>
      <path class="cls-12" d="M314.01,191.85s7.22,4.82,8.92,4.82"/>
      <line class="cls-12" x1="311.6" y1="196.67" x2="321.07" y2="199.19"/>
      <path class="cls-14" d="M348.68,219.74s24.48-5.8,41.75,6.09"/>
      <path class="cls-2" d="M345.49,138.49l8.86-7.77s8.49,9.62,9.48,9.62,4.1-6.57,4.1-6.57"/>
      <path class="cls-14" d="M321.65,276.35s1.13-25.76,9.06-35.95c7.93-10.19,25.9-19.39,25.9-19.39,0,0-.42-1.7.99-2.69,0,0-.96-3.25,1.14-3.14l-2.52-25.1"/>
      <path class="cls-16" d="M367.93,121.02s7.93,1.19,8.21,10.61c.28,9.42-1.84,19.74-1.84,19.74"/>
      <circle class="cls-45" cx="373.73" cy="155.2" r="4.03"/>
      <path class="cls-14" d="M307.06,177.81s6.79-1.61,10.27,4.13"/>
      <circle class="cls-42" cx="373.73" cy="155.2" r="1.61"/>
    </g>
    <g>
      <rect class="cls-20" x="369.77" y="130.57" width="85.77" height="59.44" rx="5.1" ry="5.1"/>
      <path class="cls-17" d="M415.91,156.32h0c5.94,0,10.76,4.82,10.76,10.76v35.77h-21.51v-35.77c0-5.94,4.82-10.76,10.76-10.76Z"/>
      <rect class="cls-20" x="393.83" y="202.85" width="41.61" height="4.99"/>
      <rect class="cls-17" x="429.07" y="179.77" width="14.44" height=".91"/>
      <rect class="cls-17" x="429.07" y="181.49" width="14.44" height=".91"/>
      <rect class="cls-17" x="429.07" y="183.21" width="14.44" height=".91"/>
      <rect class="cls-17" x="386.61" y="179.77" width="14.44" height=".91"/>
      <rect class="cls-17" x="386.61" y="181.49" width="14.44" height=".91"/>
      <rect class="cls-17" x="386.61" y="183.21" width="14.44" height=".91"/>
    </g>
    <g>
      <line class="cls-4" x1="234.19" y1="212.66" x2="205.32" y2="339.2"/>
      <line class="cls-4" x1="245.79" y1="212.66" x2="274.66" y2="339.2"/>
      <line class="cls-4" x1="429.9" y1="212.66" x2="401.02" y2="339.2"/>
      <line class="cls-4" x1="441.5" y1="212.66" x2="470.37" y2="339.2"/>
      <path class="cls-35" d="M318.89,203.5s33.9-5.55,44.94-1.88l3.68,5.94h-47.98l-.64-4.07Z"/>
      <rect class="cls-39" x="220.32" y="207.57" width="241.16" height="5.1"/>
      <path class="cls-35" d="M318.25,203.93s-28.45-8.09-48.54-3.64c0,0-4.81,2.89-6.23,7.28h54.77v-3.64Z"/>
      <path class="cls-13" d="M321.93,205.3s22.19-3.91,32.55-2.97"/>
      <path class="cls-19" d="M318.25,203.04h0c.7,0,1.27.57,1.27,1.27v3.26h-2.55v-3.26c0-.7.57-1.27,1.27-1.27Z"/>
      <path class="cls-13" d="M335.24,205.3s16.98-2.39,24.34-1.34"/>
      <path class="cls-13" d="M313.3,204.5s-29.72-6.28-41.04-2.31"/>
      <path class="cls-13" d="M305.66,204.5s-17.83-2.29-24.34-1.24"/>
      <path class="cls-13" d="M273.39,205.3s10.33-1.13,16.56,0"/>
    </g>
    <g>
      <rect class="cls-25" x="32.72" y="82.87" width="19.21" height="23.25"/>
      <path class="cls-19" d="M68.81,16.81S62.34,3.05,54.59.82C46.84-1.41,29.11.07,14.36,16.1c-14.75,16.03-1.8,47.98-1.8,47.98l6.37,7.64,49.89-54.91Z"/>
      <path class="cls-24" d="M17.37,59.27s-12.56-1.49-14.47,9.87,7.07,15.92,14.84,14.97c7.77-.96,9.04-7.43,9.04-7.43l-9.41-17.41Z"/>
      <g class="cls-52">
        <path class="cls-48" d="M37.01,255.96s-3.4,14.29-3.11,19.53,3.68,28.16,3.11,33.12c-.57,4.95-3.4,12.74-3.82,16.98-.42,4.25,0,10.61,0,10.61h5.8l4.1-3.26,7.22,3.26h25.33s1.27-5.1-6.37-8.92c0,0-11.18-9.06-16.56-11.75l1.64-59.58h-17.35Z"/>
        <path class="cls-28" d="M33,319.93s13.07,7.78,16.75,7.93c3.68.14,16.42,1.27,19.53-.57l4.39-.28s3.68,6.37,3.68,9.2v1.84H31.63s-2.64-17.12,1.37-18.12Z"/>
      </g>
      <g class="cls-51">
        <path class="cls-25" d="M22.32,256.88s-3.4,14.29-3.11,19.53c.28,5.24,3.68,28.16,3.11,33.12-.57,4.95-3.4,12.74-3.82,16.98-.42,4.25,0,10.61,0,10.61h5.8l4.1-3.26,7.22,3.26h25.33s1.27-5.1-6.37-8.92c0,0-11.18-9.06-16.56-11.75l1.64-59.58h-17.35Z"/>
        <path class="cls-28" d="M18.31,320.85s13.07,7.78,16.75,7.93c3.68.14,16.42,1.27,19.53-.57l4.39-.28s3.68,6.37,3.68,9.2v1.84H16.94s-2.64-17.12,1.37-18.12Z"/>
      </g>
      <path class="cls-48" d="M33,85.56s9.06,13.52,18.93,9.98v-12.67h-19.21l.28,2.69Z"/>
      <path class="cls-25" d="M43.97,14.3h10.19c12.5,0,22.64,10.15,22.64,22.64v27.46c0,13.44-10.91,24.34-24.34,24.34h-3.54c-15.23,0-27.6-12.37-27.6-27.6v-24.2c0-12.5,10.15-22.64,22.64-22.64Z"/>
      <path class="cls-12" d="M60.53,54.49s4.81,9.2,3.26,11.04-5.1,1.98-5.1,1.98"/>
      <path class="cls-7" d="M66.16,54.49s2.76-4.28,5.94,0"/>
      <path class="cls-19" d="M21.75,185.97s-5.38,7.08-8.99,30.22c-3.61,23.14-2.76,45.01-2.76,45.01h58.41s1.53-62.77-3.92-75.22H21.75Z"/>
      <path class="cls-7" d="M49.07,54.49s-3.93-4.28-9.13,0"/>
      <path class="cls-19" d="M66.16,107.85s2.36,1.56,3.18,9.2c.82,7.64,5.07,38.78,5.21,43.02.14,4.25,0,6.93,0,6.93h-12.31s.21-56.19,3.93-59.16Z"/>
      <path class="cls-3" d="M66.16,43.28s2.55-2.55,5.31-1.49"/>
      <path class="cls-3" d="M49.49,43.28s-2.55-3.34-8.28-.87"/>
      <path class="cls-12" d="M49.49,71.72s2.23,4.14,7.32,3.72"/>
      <path class="cls-24" d="M65.41,22.47s-13.59,16.24-37.15,17.94c0,0,.84,11.7-6.85,12.18h-4.19S11.28,11.75,49.07,11.54c0,0,19.32-.03,25.26,11.15,3.18,6.47,2.42,12.74,2.42,12.74,0,0-4.23-12.63-11.34-12.95Z"/>
      <path class="cls-19" d="M67.39,15.95s-17.04-7.91-34.24,4.83c-17.2,12.74-14.87,33.72-14.87,33.72h-5.72s.85-37.75,20.8-42.95c19.96-5.2,31.79-.04,34.03,4.41Z"/>
      <path class="cls-25" d="M22.89,54.07s-4.95-5.8-8.07-3.54c-3.11,2.26.28,17.69,8.07,18.26v-14.72Z"/>
      <path class="cls-12" d="M16.52,56.61s3.82-.1,4.81,2.78"/>
      <path class="cls-19" d="M32.72,94.49s8.28,9.25,15.5,9.39c0,0,3.04-4.1,3.72-8.35,0,0,13.2,9.77,14.22,12.31s1.23,18.68,1.23,18.68c0,0,2.7,7.64,1.74,11.61s-3.64,9.48-3.64,9.48l-.99,38.35s-29.86,2.26-42.74,0l-4.67-78.41,13.3-10.9s1.8-2.74,2.34-2.18Z"/>
      <path class="cls-14" d="M66.51,109.38c.73,4.79.88,17.15.88,17.15,0,0,2.7,7.64,1.74,11.61s-3.64,9.48-3.64,9.48l-.99,38.35s-8.67.66-18.69.91"/>
      <path class="cls-48" d="M58.98,191.63s-3.68,8.63-3.68,10.47-1.41,14.62.99,15.57,7.08-7.78,8.35-9.06,2.83-14.86,2.83-14.86c0,0-3.29-4.65-8.49-2.12Z"/>
      <path class="cls-25" d="M56.99,199.13s7.22,7.08,7.64,9.48.57,6.37,0,8.07-2.46,8.21-3.63,5.8-5.42-8.49-6.84-10.33-4.53-9.2-4.53-9.2c0,0,6.03-5.17,7.36-3.82Z"/>
      <path class="cls-19" d="M17.08,107.56s-5.24,4.53-6.79,15c-1.56,10.47-2.41,50.95-2.41,52.93s18.96,17.55,27.46,22.64c8.49,5.1,12.88,6.65,12.88,6.65,0,0,10.9-.42,9.91-6.65l-32.98-30.15s5.1-41.47,5.38-46.56c.28-5.1-4.39-16.84-13.45-13.87Z"/>
      <path class="cls-14" d="M56.84,196.96l-31.69-28.97s5.1-41.47,5.38-46.56c.25-4.44-3.28-13.95-10.19-14.33"/>
      <path class="cls-14" d="M20.79,187.57c5.22,4.19,10.87,8.36,14.55,10.57,8.49,5.1,12.88,6.65,12.88,6.65,0,0,.68-.03,1.69-.16"/>
      <path class="cls-19" d="M70.01,163.33s-4.67.42-7.08,5.8c-2.41,5.38-6.65,21.94-6.65,21.94,0,0,9.77,5.8,13.73,3.11,0,0,4.88-20.13,4.59-28.45l-4.59-2.41Z"/>
      <path class="cls-36" d="M31.94,148.18s9.06,4.95,15.14,0c0,0-6.09,9.62-15.14,0Z"/>
      <path class="cls-14" d="M55.9,98.56s.81,6.53.38,7.56-8.07-2.23-8.07-2.23c0,0-4.22,8.21-5.01,7.64s-10.84-7.22-12.82-14.86"/>
      <path class="cls-14" d="M47.03,106.11s2.61,5.98,2.04,7.82l4.09-.85s-1.03-5.78-1.85-7.98"/>
    </g>
    <g>
      <path class="cls-46" d="M167.98,57.42s-5.56-2.93-12.32-2.93-20.01.7-27.88,10.73c-7.87,10.03-7.87,23.97-7.87,29.27s2.51,30.24,0,36.38c-2.51,6.13-3.21,10.31-.84,9.62,2.37-.7,7.25-5.85,7.25-5.85,0,0,.56,3.78,2.93,5.93,2.37,2.15,2.93-1.05,3.07-1.75,0,0,4.6,3.29,5.57,2.48s21.46.86,21.46.86c0,0,9.2-.14,11.43-3.62,0,0,.56,2.79,1.95,2.79s5.78-3.48,5.78-3.48c0,0,1.18,3.07,2.51,3.76s2.86-2.93,2.86-2.93c0,0,.98,1.25,3.62.98s-1.25-3.9-2.37-8.78c-1.11-4.88,1.53-50.73-.14-56.44-1.67-5.71-9.9-17.84-17.01-17Z"/>
      <g class="cls-55">
        <path class="cls-48" d="M198.6,261.53s-9.41,34.91-10.24,38.47c-.84,3.55-2.93,14.63-1.67,16.31s14.91,12.33,16.65,14.22,1.43,5.85-7.14,5.12c-8.57-.73-18.5,0-18.5,0,0,0-2.3-8.26-4.08-8.26l-2.61,8.35h-4.49s-.52-11.69.52-14.41c1.05-2.72,3.87-6.06,3.87-6.06,0,0-1.57-44.32,2.82-51.64l24.88-2.09Z"/>
        <path class="cls-33" d="M170.23,316.08s5.47,5.34,9.76,7.43c4.29,2.09,17.56,4.49,20.17,2.72,0,0,6.17,4.18,5.75,6.17s-4.49,4.81-4.49,4.81l-37.21-.52v-12.44s2.54-6.91,6.03-8.16Z"/>
      </g>
      <path class="cls-48" d="M143.73,129.75l-2.51,12.4,16.38,2.37s2.16-11.01,4.11-12.26l-17.98-2.51Z"/>
      <path class="cls-25" d="M144.43,65.22h24.25c8.38,0,15.19,6.81,15.19,15.19v33.45c0,11.46-9.3,20.77-20.77,20.77h-8.92c-13.77,0-24.95-11.18-24.95-24.95v-29.27c0-8.38,6.81-15.19,15.19-15.19Z"/>
      <circle class="cls-24" cx="154.7" cy="102.82" r="2.89"/>
      <path class="cls-27" d="M110.84,253.45h61.38v22.16h-77.27v-6.27c0-8.77,7.12-15.89,15.89-15.89Z"/>
      <rect class="cls-27" x="128.68" y="273.1" width="2.79" height="61.46"/>
      <path class="cls-27" d="M119.9,334.56h20.35c1.38,0,2.51,1.12,2.51,2.51h-25.37c0-1.38,1.12-2.51,2.51-2.51Z"/>
      <path class="cls-8" d="M157.6,90.03s-5.23-2.51-8.29,2.51"/>
      <circle class="cls-24" cx="175.61" cy="102.82" r="2.89"/>
      <path class="cls-8" d="M172.72,90.03s5.23-2.51,8.29,2.51"/>
      <path class="cls-15" d="M166.59,102.82s4.18,8.12,4.18,9.51-4.18,2.51-4.18,2.51"/>
      <path class="cls-41" d="M167.77,119.16s-8.43-2.3-10.17-1.25,2.09,5.85,5.09,5.64,6.13-2.72,5.09-4.39Z"/>
      <path class="cls-25" d="M130.77,101.81s-4.6-5.02-7.11,0,4.81,13.52,7.11,13.03v-13.03Z"/>
      <path class="cls-15" d="M126.31,104.39s2.89.96,2.93,3.76"/>
      <g class="cls-53">
        <path class="cls-25" d="M185.54,263.62s-9.41,34.91-10.24,38.47-2.93,14.63-1.67,16.31,14.91,12.33,16.65,14.22c1.74,1.88,1.43,5.85-7.14,5.12-8.57-.73-18.5,0-18.5,0,0,0-2.3-8.26-4.08-8.26l-2.61,8.35h-4.49s-.52-11.69.52-14.41c1.05-2.72,3.87-6.06,3.87-6.06,0,0-1.57-44.32,2.82-51.64l24.88-2.09Z"/>
        <path class="cls-29" d="M157.18,318.17s5.47,5.34,9.76,7.43c4.29,2.09,17.56,4.49,20.17,2.72,0,0,6.17,4.18,5.75,6.17s-4.49,4.81-4.49,4.81l-37.21-.52v-12.44s2.54-6.91,6.03-8.16Z"/>
      </g>
      <g class="cls-56">
        <path class="cls-50" d="M111.32,231.07s-3.14,14.35,0,19.58c3.14,5.23,14.42,6.27,21.32,6.27s24.88,2.72,24.88,2.72c0,0-1.53,6.06-.98,6.69s35.26,5.64,50.1-6.27c3.35-2.3,0-19.86-4.39-26.34-4.39-6.48-17.14-13.09-28.43-14.91-11.29-1.82-30.1-1.19-30.1-1.19l-32.4,13.45Z"/>
        <g>
          <rect class="cls-44" x="68.3" y="204.83" width="186.48" height="5.02" transform="translate(-61 67.48) rotate(-19.93)"/>
          <rect class="cls-44" x="70.73" y="213.61" width="186.48" height=".84" transform="translate(-63.14 68.71) rotate(-19.93)"/>
          <rect class="cls-44" x="73.86" y="220.16" width="186.48" height="5.02" transform="translate(-65.9 70.3) rotate(-19.93)"/>
          <rect class="cls-44" x="76.28" y="228.94" width="186.48" height=".84" transform="translate(-68.03 71.52) rotate(-19.93)"/>
          <rect class="cls-44" x="79.42" y="235.49" width="186.48" height="5.02" transform="translate(-70.79 73.11) rotate(-19.93)"/>
          <rect class="cls-44" x="81.84" y="244.27" width="186.48" height=".84" transform="translate(-72.92 74.34) rotate(-19.93)"/>
          <rect class="cls-44" x="84.98" y="250.82" width="186.48" height="5.02" transform="translate(-75.68 75.92) rotate(-19.93)"/>
          <rect class="cls-44" x="87.4" y="259.6" width="186.48" height=".84" transform="translate(-77.81 77.15) rotate(-19.93)"/>
          <rect class="cls-44" x="90.54" y="266.15" width="186.48" height="5.02" transform="translate(-80.57 78.74) rotate(-19.93)"/>
          <rect class="cls-44" x="92.96" y="274.93" width="186.48" height=".84" transform="translate(-82.71 79.96) rotate(-19.93)"/>
          <rect class="cls-44" x="96.09" y="281.48" width="186.48" height="5.02" transform="translate(-85.47 81.55) rotate(-19.93)"/>
          <rect class="cls-44" x="98.52" y="290.26" width="186.48" height=".84" transform="translate(-87.6 82.77) rotate(-19.93)"/>
          <rect class="cls-44" x="101.65" y="296.81" width="186.48" height="5.02" transform="translate(-90.36 84.36) rotate(-19.93)"/>
          <rect class="cls-44" x="104.08" y="305.58" width="186.48" height=".84" transform="translate(-92.49 85.59) rotate(-19.93)"/>
          <rect class="cls-44" x="105.74" y="187.91" width="5.02" height="186.48" transform="translate(-89.35 53.74) rotate(-19.93)"/>
          <rect class="cls-44" x="114.52" y="185.49" width=".84" height="186.48" transform="translate(-88.13 55.87) rotate(-19.93)"/>
          <rect class="cls-44" x="121.07" y="182.35" width="5.02" height="186.48" transform="translate(-86.54 58.63) rotate(-19.93)"/>
          <rect class="cls-44" x="129.85" y="179.93" width=".84" height="186.48" transform="translate(-85.31 60.77) rotate(-19.93)"/>
          <rect class="cls-44" x="136.4" y="176.79" width="5.02" height="186.48" transform="translate(-83.73 63.52) rotate(-19.93)"/>
          <rect class="cls-44" x="145.18" y="174.37" width=".84" height="186.48" transform="translate(-82.5 65.66) rotate(-19.93)"/>
          <rect class="cls-44" x="151.73" y="171.23" width="5.02" height="186.48" transform="translate(-80.91 68.42) rotate(-19.93)"/>
          <rect class="cls-44" x="160.51" y="168.81" width=".84" height="186.48" transform="translate(-79.69 70.55) rotate(-19.93)"/>
          <rect class="cls-44" x="167.06" y="165.67" width="5.02" height="186.48" transform="translate(-78.1 73.31) rotate(-19.93)"/>
          <rect class="cls-44" x="175.84" y="163.25" width=".84" height="186.48" transform="translate(-76.88 75.44) rotate(-19.93)"/>
          <rect class="cls-44" x="182.39" y="160.12" width="5.02" height="186.48" transform="translate(-75.29 78.2) rotate(-19.93)"/>
          <rect class="cls-44" x="191.16" y="157.69" width=".84" height="186.48" transform="translate(-74.06 80.34) rotate(-19.93)"/>
          <rect class="cls-44" x="197.72" y="154.56" width="5.02" height="186.48" transform="translate(-72.48 83.1) rotate(-19.93)"/>
          <rect class="cls-44" x="206.49" y="152.13" width=".84" height="186.48" transform="translate(-71.25 85.23) rotate(-19.93)"/>
        </g>
      </g>
      <path class="cls-46" d="M181.01,76.23s.14,10.31-4.15,11.57h-8.19s1.95-2.23,2.09-5.02c0,0-3.07,5.02-5.57,5.02h-7.6s1.18-1.67,1.32-2.65c0,0-3.14,2.37-5.47,2.65s-6.79,0-6.79,0c0,0,1.81-4.6,1.11-9.34,0,0-2.09,11.78-10.31,12.51,0,0,.7,8.68-8.22,8.61l-2.28.02v-25.29c0-5.79,4.69-10.48,10.48-10.48h35.29s8.64,3.21,10.59,8.36c1.95,5.16.56,13.8.56,13.8,0,0-.56-6.55-2.86-9.76Z"/>
      <path class="cls-26" d="M139.13,143.83s-.14-7.27,3.21-7.19c0,0,10.31,4.89,16.44,2.77,0,0,4.04,1.5,2.93,3.31s-1.67,2.93-1.67,2.93c0,0,2.79,1.53,5.3,11.29s-8.78,62.58-8.78,62.58c0,0-18.95,4.32-25.92,6.69s-18.54,6.69-19.93,6.69-2.51-6.97.7-8.22c0,0,.7-26.62,5.3-45.71,4.6-19.09,16.08-34.07,22.44-35.12Z"/>
      <path class="cls-26" d="M159.62,146.48s5.57,1.67,8.36,7.94c2.79,6.27,11.1,24.25,11.1,24.25l16.08-13.8s9.2,7.8,9.62,13.8c0,0-23.81,20.49-25.7,21.46s-5.24.28-7.33-2.79c-2.09-3.07-11.29-14.91-11.29-14.91l-.84-35.96Z"/>
      <path class="cls-25" d="M195.43,166.68l3.34-4.04s-.42-3.48,0-5.16c.42-1.67-.7-7.11,0-8.22.7-1.11,3.34.28,5.99,4.32,0,0,10.31-7.11,11.43-5.99,1.11,1.11.84,2.09.84,2.09,0,0,3.62-1.39,4.32.42,0,0,2.37.42,2.37,1.74,0,0,1.25,4.55.7,5.24,0,0-13.66,14.34-17.14,12.11l-4.32,6.27-7.53-8.78Z"/>
      <path class="cls-25" d="M175.92,216.72s7.67,4.74,9.9,6.55c2.23,1.81,4.46,4.88,4.46,7.81s-.42,5.57-.56,6.69c-.14,1.11-1.81.7-1.81.7,0,0-2.37,6.69-4.81,5.16s-1.44-6.83-4.03-10.17-4.26-8.78-4.26-8.78l-3.21-1.95s2.51-5.3,4.32-5.99Z"/>
      <path class="cls-37" d="M100.25,183.13c-1.27-.35-3.48-.64-5.3,1.63-1.81,2.27-11.71,23.87-10.31,27.22s21.6,7.53,30.94,8.22c9.34.7,15.61,2.09,16.45,0l-.56-24.53s-21.74-8.5-25.23-10.03-4.6-2.12-5.99-2.51Z"/>
      <path class="cls-6" d="M98.85,183.69s22.16-36.38,36.93-33.45c14.77,2.93,7.72,22.71,7.72,22.71"/>
      <path class="cls-26" d="M129.23,153.86s9.34-5.85,12.82,2.37c3.48,8.22-.56,46.97.84,48.08s34.84,9.2,36.1,11.01c1.25,1.81-12.23,15.89-13.29,15.75s-21.41-9.2-26.98-8.92-7.67.14-9.48-2.65c-1.81-2.79-4.88-6.97-5.02-16.17-.14-9.2-.56-22.58-1.95-24.53,0,0,1.95-19.65,6.97-24.95Z"/>
      <path class="cls-11" d="M130.7,221.13c.65.48,1.39.77,2.32.94,0,0,7.89.17,9.87.71"/>
      <path class="cls-11" d="M132.02,152.56c3.04-1.07,7.77-1.67,10.04,3.67,3.48,8.22-.56,46.97.84,48.08.64.51,7.94,2.47,15.81,4.62"/>
      <path class="cls-11" d="M123.93,192.72c-.27-6.6-.77-12.65-1.67-13.91"/>
      <path class="cls-11" d="M162.91,185.76s3.29-19.22,2.78-24.93"/>
      <path class="cls-5" d="M157.53,259.64s.84-1.53-1.11-3.48"/>
    </g>
    <rect class="cls-30" y="337.48" width="489.52" height="3.17"/>
    <g>
      <path class="cls-47" d="M460.2,280.25s35.47-32.24-4.77-58.62c0,0-34.22,31.29,4.77,58.62Z"/>
      <path class="cls-47" d="M468.67,290.82s-5.28-26.53,31.38-19.94c0,0-3.06,28.87-31.38,19.94Z"/>
      <path class="cls-47" d="M455.29,294.47s-4.39-19.37-32.69-14.7c0,0,10.98,21.36,32.69,14.7Z"/>
      <g>
        <path class="cls-1" d="M458.79,320.34s-7.01-28.43,14.49-55.64"/>
        <path class="cls-34" d="M469.56,269.82s-9.44-27.34,25.56-33c0,0,8.55,26.68-25.56,33Z"/>
        <path class="cls-1" d="M462.46,317.82s4.99-31-14.68-64.5"/>
        <path class="cls-1" d="M468.4,312.15s-6.96-19.83,4.88-26.58"/>
        <path class="cls-1" d="M452.12,307.72s9.67-11.24-4.33-28.07"/>
        <path class="cls-34" d="M450.76,258.72s-29.64-6.14-17.64-34.36c0,0,29.61,2.59,17.64,34.36Z"/>
        <path class="cls-34" d="M469.82,288.76s-1.68-13.61,15.14-10.28c0,0,2.33,12.68-15.14,10.28Z"/>
        <path class="cls-34" d="M451.14,284.25s-11.67-2.05-11.18-11.91c0,0,9.86-1.8,11.18,11.91Z"/>
      </g>
      <g>
        <g>
          <path class="cls-49" d="M482.35,323.91c0,3.44-1.32,6.88-3.96,9.51-2.65,2.63-6.11,3.94-9.56,3.94h-12.73c-3.46,0-6.92-1.31-9.56-3.94-2.64-2.63-3.96-6.07-3.96-9.51v-20.57h39.78v20.57Z"/>
          <path class="cls-21" d="M478.89,303.34v20.57c0,3.44-1.43,6.88-4.3,9.51-2.87,2.63-6.63,3.94-10.39,3.94h3.46c3.75,0,7.52-1.31,10.39-3.94,2.87-2.63,4.3-6.07,4.3-9.51v-20.57h-3.46Z"/>
        </g>
        <rect class="cls-40" x="439.96" y="297.96" width="45" height="5.38"/>
      </g>
    </g>
  </g>
</svg>