<?xml version="1.0" encoding="UTF-8"?>
<svg id="Layer_2" data-name="Layer 2" xmlns="http://www.w3.org/2000/svg" viewBox="0 0 386.45 89.27">
  <defs>
    <style>
      .cls-1 {
        fill: #111627;
      }

      .cls-1, .cls-2, .cls-3, .cls-4, .cls-5, .cls-6, .cls-7, .cls-8, .cls-9, .cls-10, .cls-11 {
        stroke-width: 0px;
      }

      .cls-2 {
        fill: #111627;
      }

      .cls-3 {
        fill: #111627;
      }

      .cls-4 {
        fill: #111627;
      }

      .cls-5 {
        fill: #111627;
      }

      .cls-6 {
        fill: #111627;
      }

      .cls-7 {
        fill: #111627;
      }

      .cls-8 {
        fill: #111627;
      }

      .cls-9 {
        fill: #111627;
      }

      .cls-10 {
        fill: #111627;
      }

      .cls-11 {
        fill: #111627;
      }
    </style>
  </defs>
  <g id="Layer_1-2" data-name="Layer 1">
    <g>
      <path class="cls-6" d="M155.18,63.97c-.94.28-1.28.46-1.63.48-6.88.51-6.81.5-7.37-6.42-.55-6.77-1.26-13.52-2.65-20.46-.4.92-.86,1.81-1.18,2.75-2.45,7.18-4.78,14.4-7.41,21.52-.42,1.13-2.02,2.16-3.29,2.56-1.93.62-3.16-.41-3.82-2.46-2.32-7.22-4.79-14.4-7.23-21.58-.38-1.11-.88-2.17-2.05-3.11-.38,4.51-.73,9.03-1.16,13.54-.42,4.43-.9,8.86-1.38,13.48h-8.27c.56-6.67,1.11-13.17,1.65-19.67.54-6.43,1.07-12.87,1.64-19.81,3.59,0,7.05-.15,10.48.11.81.06,1.85,1.41,2.21,2.38,2.07,5.6,3.96,11.27,5.92,16.91.43,1.24.92,2.47,2.23,3.72,1.9-5.47,3.82-10.93,5.69-16.4q2.3-6.73,9.37-6.73c1.48,0,2.97,0,5,0,1.09,13.14,2.16,26.08,3.25,39.19Z"/>
      <path class="cls-8" d="M49.97,7.47C55.05,3.23,60.92.59,67.56.21c12.97-.75,24.06,5.96,29.58,17.59,5.1,10.74,2.91,23.86-6.1,33.14-11.63,11.98-23.54,23.7-35.41,35.45-3.88,3.84-7.61,3.84-11.48.01-12.04-11.93-24.13-23.82-35.93-35.99C-2.11,39.77-2.72,22.05,6.48,11.49,17.52-1.21,33.8-3.62,47.08,5.46c.92.63,1.84,1.28,2.89,2.02ZM3.62,29.89c.05,6.79,1.54,12.11,6.06,16.81,11.99,12.5,24.24,24.75,36.44,37.05,2.44,2.46,5.08,2.35,7.54-.15,4.11-4.17,8.2-8.37,12.33-12.53,8.08-8.13,16.54-15.92,24.17-24.46,8.79-9.85,7.72-25.7-1.6-34.98-9.88-9.84-25.12-10.74-35.58-1.94-2.24,1.88-3.81,1.99-6.12.07-8.38-6.98-17.95-7.99-27.66-3.71C9.08,10.52,3.87,18.74,3.62,29.89Z"/>
      <path class="cls-1" d="M195.47,63.34V25.45c0-.55.46-.98,1.01-.96,6.77.31,13.31.24,19.71,1.16,5.73.82,9.36,4.99,11.17,10.43,1.86,5.57,1.9,11.32.16,16.89-2.06,6.59-7.08,10.42-13.68,11.18-5.69.66-11.51.2-17.41.15-.53,0-.96-.43-.96-.96ZM203.7,55.77c0,.5.38.92.88.96,10.81.97,14.25-1.61,15.31-10.74,1.11-9.51-4.35-15.04-13.86-13.85-.85.11-2.21,1.33-2.23,2.07-.16,7.13-.11,14.27-.1,21.57Z"/>
      <path class="cls-10" d="M186.92,24.78c.09,1.7.08,2.81.21,3.9.3,2.63-.85,3.58-3.44,3.41-2.61-.17-5.26.21-7.84-.09-3.98-.46-3.6,2.02-3.7,4.61-.1,2.75.16,4.2,3.71,4.21,2.01,0,3.74.05,5.6-.07,2.63-.17,4.23.29,4.1,3.58-.11,2.89-.61,4.07-4,4.17-2.94.09-5.9-.05-9.1-.05v8.49h14.65c0,2.01.3,3.66-.11,5.13-.26.95-1.52,2.29-2.36,2.32-6.22.2-12.46.07-18.68.13-2.04.02-2.5-.98-2.49-2.78.04-11.44-.03-22.89.11-34.33.01-.89,1.33-2.5,2.08-2.52,6.95-.19,13.91-.12,21.27-.12Z"/>
      <path class="cls-11" d="M344.03,49.07c3.03,5,5.93,10.21,8.93,15.17-3.66,1.31-4.09,1.35-6.39-2.84-.83-1.6-1.63-2.95-2.38-4.77-3.75-7.74-3.83-8.25-16.28-8.31,0,2.34.09,5.99.09,8.43v7.37h-4.19V25.11c7,0,14.03-.19,21.04.15,1.55.07,3.32,1.74,4.45,3.12,4.48,5.51,2.17,16.37-4.01,19.7-.31.17-.57.44-1.25.98ZM328.24,45c4.28,0,8.23-.05,12.18.01,3.32.05,5.43-1.38,6.24-4.64,1.18-4.74-.03-9.75-2.77-11.2-.54-.28-1.16-.56-1.75-.57-4.56-.05-9.11-.03-13.9-.03v16.41Z"/>
      <path class="cls-4" d="M317.32,63.96c-3.5,1.17-4.83.1-5.79-2.72-2.76-8.1-.68-6.53-9.36-6.71-.5-.01-1,0-1.49,0q-8.17,0-11.05,7.49c-1.07,2.79-1.13,2.81-5.57,1.86.54-1.77,1.01-3.53,1.63-5.24,3.73-10.27,7.51-20.52,11.22-30.79.66-1.82,1.16-3.28,3.73-3.25,2.51.02,3.06,1.32,3.74,3.22,3.93,10.99,7.97,21.94,11.95,32.91.36,1,.62,2.03.97,3.23ZM307.7,50.08c-2.25-6.63-4.37-12.87-6.49-19.12-.36.09-.73.18-1.09.27-2.12,6.16-4.24,12.33-6.49,18.85h14.06Z"/>
      <path class="cls-9" d="M385.21,64.24h-23.2c-.62,0-1.12-.5-1.12-1.12V26.14c0-.62.5-1.12,1.12-1.12h23.3c.58,0,1.05.44,1.11,1.01.25,2.14-1.09,2.47-3.16,2.46-5.47,0-10.95,0-16.8,0-.62,0-1.13.51-1.13,1.12-.02,3.82-.1,7.3.12,10.76-.04,1.64,1.63,1.69,2.55,1.71,4.17.1,7.8.09,12.01.08.59,0,1.09.46,1.13,1.05l.1,1.71c.03.58-.42,1.05-.99,1.06-3.96.03-7.25-.11-11.09.05-2.19.09-3.94,1.9-3.89,4.09s-.2,4.35-.16,6.54c.19,3.57,1.09,3.91,4.4,4.01,4.73.14,9.47-.1,14.21-.05,2.45.03,2.73.09,2.62,2.52-.03.6-.52,1.07-1.11,1.07Z"/>
      <path class="cls-3" d="M244.08,24.76c.44,0,.81.37.81.81,0,9,0,17.56,0,26.11,0,2.49,0,4.98,0,7.47,0,5.39-1.86,6.37-7.3,5.89-1.43-.13-1.34-2.11-1.34-2.88-.11-11.7-.12-23.4.03-35.1.01-.77-.41-1.98,2.44-2.19,2.08-.15,3.38-.11,5.36-.1Z"/>
      <path class="cls-7" d="M281.33,24.72c.65,2.85-.58,3.76-2.85,3.77-4.24.02-8.48-.03-12.71.04-4.3.07-6.11,1.87-6.16,6.18-.07,6.47-.06,12.94,0,19.42.03,4.46,1.87,6.34,6.37,6.45,4.23.11,8.47.12,12.69,0,2.55-.07,3.47.89,2.65,3.67-6.33,0-12.78.29-19.19-.11-3.92-.25-6.97-4.08-7.11-8.45-.23-7.34-.27-14.69-.02-22.02.18-5.45,4.01-8.85,9.52-8.93,5.58-.09,11.17-.02,16.81-.02Z"/>
      <path class="cls-5" d="M57.57,48.68c-.31,0-.57.26-.57.57,0,2.62-.06,4.71.02,6.79.08,2.34-.62,2.93-3.53,2.97-2.3.03-3.83.08-6.96.08s-3.92-.44-3.82-2.96c.09-2.17.03-4.34.02-6.88,0-.31-.26-.57-.57-.57-2.45,0-4.62-.05-6.78.02-2.1.07-3.54-.59-3.48-2.89,0-.25-.28-6.41-.15-8.77.07-1.17,0-2.4,2.15-2.44,1.58-.03,3.95-.08,6.97-.22.27-.01.54,0,.89-.01.51-.02.92-.49.93-1,.02-2.26.12-4.49,0-6.7-.06-1.1-.05-1.81.31-2.41.57-.96,1.69-.75,2.78-.77.12,0,.25,0,.37,0,3.89,0,3.47-.03,9.36,0,1.98,0,1.79.91,1.79,2.59,0,3.94-.06,5.42-.01,7.97,0,.31.25.56.56.56,2.16,0,4.72-.05,7.05-.07,2.57-.02,2.43,1.58,2.55,2.56.35,2.82.23,5.71.14,8.56-.08,2.51-.41,2.85-3.19,3.05-2.16.16-4.34-.02-6.84-.02ZM35.44,44.48c0,.31.26.56.57.56,2.47,0,4.65.05,6.83-.02,2.21-.06,3.2.89,3.13,3.12-.07,2.15-.03,4.31-.02,6.58,0,.31.25.57.56.57h6.36c.31,0,.56-.26.56-.57.02-1.94-.13-3.64-.03-5.32.23-3.89.34-4.37,4.29-4.4,3.1-.02,3.82.05,5.85.03.31,0,.56-.25.56-.56v-6.4c0-.31-.26-.56-.57-.56-2.39-.01-4.58-.1-6.75.03-3.04-.05-3.45-.53-3.36-3.33.07-2.13.01-4.26,0-6.41,0-.31-.25-.56-.56-.56h-6.36c-.31,0-.56.26-.56.57-.01,2.23-.09,4.28.03,6.32.14,2.62-1,3.59-3.56,3.43-2.12-.13-4.24-.05-6.41-.03-.31,0-.56.25-.56.56v6.4Z"/>
      <path class="cls-4" d="M49.57,14.91c6.97.19,9.94,1.61,13.82,3.76,2.32,1.28,4.15,2.74,5.94,4.72,1.35,1.5,2.72,3.36,3.77,5.4s3.57,7.45,2.99,14.36c-.38,4.52-1.72,9.16-4.05,12.86-.2.32-.45.66-.69.9-.21.2-.33.28-.54.41-1.3.78-2.91-.5-2.39-1.92.05-.15.12-.28.2-.41,5.34-8.01,5.74-16.26,1.32-24.66-5.38-10.23-18.16-14.67-28.88-10.25-.8.33-1.58.95-2.39,1-.26.02-.52,0-.78-.02-1.35-.15-2.01-1.88-.98-2.76.07-.06.15-.11.22-.16,1.97-1.07,2.9-1.45,4.25-1.93,1.43-.52,3.39-1.17,8.18-1.28Z"/>
      <path class="cls-2" d="M22.7,41.47c-.21-5.58,1.65-10.54,4.85-14.98.14-.19.31-.35.51-.49,1.28-.93,3.1.52,2.43,1.95-.05.11-.11.21-.18.31-6.37,8.53-5.35,22.19,2.67,29.82,5.9,5.61,12.91,7.76,20.98,6.05.49-.1,1-.33,1.46-.26.18.03.35.06.53.09,1.37.27,1.86,2.07.74,2.89-.18.13-.37.23-.57.27-3.15.6-6.44,1.28-9.59.96-13.82-1.37-23.81-12.7-23.83-26.61Z"/>
    </g>
  </g>
</svg>