<?xml version="1.0" encoding="UTF-8"?>
<svg id="Layer_2" data-name="Layer 2" xmlns="http://www.w3.org/2000/svg" viewBox="0 0 199.35 178.26">
  <defs>
    <style>
      .cls-1 {
        fill: #38b9bc;
      }

      .cls-1, .cls-2, .cls-3, .cls-4 {
        stroke-width: 0px;
      }

      .cls-2 {
        fill: #37b9bc;
      }

      .cls-3 {
        fill: #34b8bb;
      }

      .cls-4 {
        fill: #31b8bb;
      }
    </style>
  </defs>
  <g id="Layer_1-2" data-name="Layer 1">
    <path class="cls-4" d="M99.79,14.92C109.92,6.45,121.64,1.18,134.91.42c25.89-1.5,48.05,11.9,59.07,35.12,10.18,21.45,5.8,47.65-12.18,66.18-23.23,23.93-47,47.33-70.71,70.78-7.75,7.67-15.2,7.67-22.92.03-24.05-23.82-48.18-47.57-71.75-71.86C-4.21,79.42-5.43,44.04,12.93,22.94,34.99-2.41,67.48-7.24,94.01,10.9c1.85,1.26,3.67,2.55,5.78,4.03ZM7.24,59.69c.11,13.56,3.07,24.18,12.09,33.57,23.95,24.95,48.4,49.42,72.77,73.98,4.87,4.91,10.15,4.69,15.06-.29,8.22-8.33,16.38-16.71,24.62-25.01,16.13-16.24,33.04-31.79,48.26-48.84,17.56-19.67,15.41-51.31-3.2-69.85-19.73-19.65-50.17-21.44-71.06-3.87-4.47,3.76-7.61,3.96-12.21.13-16.74-13.95-35.84-15.96-55.24-7.41C18.14,21,7.72,37.42,7.24,59.69Z"/>
    <path class="cls-3" d="M114.96,97.2c-.62,0-1.14.52-1.14,1.14-.01,5.24-.11,9.41.04,13.56.17,4.67-1.23,5.85-7.06,5.93-4.59.06-7.65.15-13.89.16s-7.83-.88-7.63-5.91c.17-4.33.06-8.67.04-13.73,0-.62-.52-1.14-1.14-1.14-4.9-.01-9.22-.11-13.53.04-4.2.14-7.07-1.17-6.94-5.77.01-.49-.57-12.79-.29-17.51.14-2.35-.01-4.79,4.29-4.88,3.15-.07,7.88-.15,13.92-.45.55-.03,1.08.01,1.78-.02,1.02-.05,1.85-.97,1.86-1.99.04-4.52.25-8.96,0-13.38-.12-2.19-.09-3.62.62-4.81,1.15-1.91,3.37-1.51,5.55-1.54.25,0,.5,0,.75,0,7.77-.01,6.92-.06,18.69,0,3.96.02,3.57,1.81,3.57,5.17,0,7.87-.13,10.82-.02,15.92.01.62.5,1.12,1.12,1.11,4.31-.01,9.42-.1,14.08-.14,5.13-.05,4.85,3.15,5.09,5.11.69,5.63.46,11.39.28,17.1-.15,5.02-.82,5.69-6.37,6.09-4.32.31-8.66-.04-13.66-.03ZM70.76,88.82c0,.62.52,1.13,1.14,1.13,4.94.01,9.29.09,13.63-.03,4.41-.13,6.4,1.78,6.25,6.23-.14,4.3-.05,8.61-.04,13.15,0,.62.5,1.13,1.13,1.13h12.7c.62,0,1.12-.51,1.13-1.13.03-3.87-.25-7.26-.06-10.62.45-7.76.68-8.73,8.57-8.8,6.2-.05,7.62.1,11.69.07.62,0,1.13-.51,1.13-1.12v-12.78c0-.62-.51-1.12-1.13-1.13-4.78-.03-9.14-.19-13.47.06-6.07-.1-6.9-1.05-6.72-6.65.14-4.25.03-8.5,0-12.81,0-.62-.5-1.13-1.13-1.13h-12.71c-.62,0-1.12.51-1.13,1.13-.02,4.46-.17,8.55.05,12.61.29,5.23-2,7.16-7.11,6.84-4.22-.26-8.47-.09-12.81-.06-.62,0-1.12.5-1.12,1.12v12.79Z"/>
    <path class="cls-2" d="M98.99,29.77c13.92.38,19.84,3.22,27.6,7.5,4.63,2.55,8.28,5.46,11.85,9.42,2.7,2.99,5.43,6.71,7.53,10.78,2.07,4.01,7.13,14.87,5.98,28.68-.75,9.02-3.43,18.28-8.09,25.67-.4.63-.9,1.32-1.38,1.79-.42.41-.66.57-1.08.81-2.6,1.56-5.82-.99-4.77-3.84.11-.29.24-.57.41-.82,10.67-15.99,11.47-32.47,2.64-49.25-10.75-20.43-36.27-29.3-57.66-20.47-1.6.66-3.15,1.89-4.77,1.99-.52.03-1.04,0-1.56-.05-2.7-.3-4.02-3.75-1.96-5.52.14-.12.29-.23.45-.31,3.94-2.13,5.79-2.89,8.48-3.85,2.86-1.03,6.77-2.34,16.33-2.55Z"/>
    <path class="cls-1" d="M45.33,82.81c-.43-11.15,3.3-21.05,9.69-29.92.27-.38.62-.7,1.01-.99,2.56-1.85,6.2,1.04,4.85,3.9-.1.22-.22.43-.37.62-12.71,17.03-10.69,44.3,5.33,59.55,11.78,11.21,25.78,15.5,41.9,12.08.97-.21,2-.67,2.92-.52.35.06.71.12,1.06.19,2.73.54,3.71,4.13,1.47,5.77-.37.27-.75.46-1.15.53-6.29,1.2-12.87,2.55-19.15,1.92-27.6-2.73-47.54-25.36-47.58-53.13Z"/>
  </g>
</svg>