<svg xmlns="http://www.w3.org/2000/svg" width="277.515" height="206.931" viewBox="0 0 277.515 206.931">
  <g id="Group_111" data-name="Group 111" transform="translate(-699.003 -280.587)">
    <g id="Group_107" data-name="Group 107">
      <g id="Group_106" data-name="Group 106">
        <path id="Path_159" data-name="Path 159" d="M298.826,238.733v80.406A17.177,17.177,0,0,1,281.668,336.3H189.551a17.186,17.186,0,0,1-17.169-17.158V238.733a59.041,59.041,0,0,1,19.055-43.355l.484-.444V160.516h87.366v34.408l.495.444a59.056,59.056,0,0,1,19.044,43.366" transform="translate(530.147 147.677)" fill="#fff" stroke="#7bead4" stroke-width="1"/>
        <path id="Path_160" data-name="Path 160" d="M198.387,469.739v56.61a8.6,8.6,0,0,0,8.59,8.58" transform="translate(512.721 -59.534)" fill="#fff" stroke="#7bead4" stroke-width="1"/>
        <path id="Path_161" data-name="Path 161" d="M193.8,466.665v56.61a10.108,10.108,0,0,0,10.1,10.093,1.513,1.513,0,1,0,0-3.026,7.081,7.081,0,0,1-7.077-7.067v-56.61a1.513,1.513,0,1,0-3.026,0Z" transform="translate(515.795 -56.46)" fill="#7bead4" stroke="#1f1717" stroke-width="1"/>
        <line id="Line_21" data-name="Line 21" y2="13.708" transform="translate(711.108 386.409)" fill="#fff" stroke="#7bead4" stroke-width="1"/>
        <path id="Path_162" data-name="Path 162" d="M193.8,394.535v13.708a1.513,1.513,0,1,0,3.026,0V394.535a1.513,1.513,0,1,0-3.026,0" transform="translate(515.795 -8.126)" fill="#7bead4" stroke="#1f1717" stroke-width="1"/>
        <path id="Path_163" data-name="Path 163" d="M277.727,191.185V155.93H187.335V191.2A60.2,60.2,0,0,0,167.8,235.66v80.406a18.677,18.677,0,0,0,18.682,18.671H278.6a18.675,18.675,0,0,0,18.671-18.671V235.66a60.206,60.206,0,0,0-19.539-44.475m18.026,124.881A17.177,17.177,0,0,1,278.6,333.224H186.478a17.186,17.186,0,0,1-17.169-17.158V235.66A59.041,59.041,0,0,1,188.364,192.3l.484-.444V157.443h87.366v34.408l.495.444a59.056,59.056,0,0,1,19.044,43.366v80.406" transform="translate(533.22 150.75)" fill="#fff" stroke="#7bead4" stroke-width="1"/>
        <path id="Path_164" data-name="Path 164" d="M266.161,333.224a18.491,18.491,0,0,1-7.374,1.513H175.728a20.215,20.215,0,0,1-12.518-18.671V235.66a62.036,62.036,0,0,1,19.539-45.121V155.93H257.92v1.513H185.775v34.418l-.484.444a59.041,59.041,0,0,0-19.055,43.355v80.406A17.186,17.186,0,0,0,183.4,333.224h82.756" transform="translate(536.293 150.75)" fill="#fff" stroke="#7bead4" stroke-width="1"/>
        <path id="Path_165" data-name="Path 165" d="M276.167,187.455V151.343H182.749v36.123a62.036,62.036,0,0,0-19.539,45.121v80.406A20.188,20.188,0,0,0,183.4,333.177h92.117a20.212,20.212,0,0,0,20.185-20.185V232.586a62.043,62.043,0,0,0-19.539-45.131M292.68,312.992a17.177,17.177,0,0,1-17.158,17.158H183.4a17.186,17.186,0,0,1-17.169-17.158V232.586a59.041,59.041,0,0,1,19.055-43.355l.484-.444V154.369h87.366v34.408l.495.444a59.056,59.056,0,0,1,19.044,43.366v80.406" transform="translate(536.293 153.823)" fill="#7bead4" stroke="#1f1717" stroke-width="1"/>
        <path id="Path_166" data-name="Path 166" d="M465.519,160.516H450.3v33.742a60.209,60.209,0,0,1,19.539,44.475v80.406a18.685,18.685,0,0,1-11.3,17.158H467.9a17.177,17.177,0,0,0,17.158-17.158V238.733a59.056,59.056,0,0,0-19.044-43.366l-.495-.444V160.516" transform="translate(343.916 147.677)" fill="rgba(30,235,202,0.17)" stroke="#1f1717" stroke-width="1"/>
        <rect id="Rectangle_72" data-name="Rectangle 72" width="22.962" height="24.079" transform="translate(708.345 282.601)" fill="#fff" stroke="#7bead4" stroke-width="1"/>
        <path id="Path_167" data-name="Path 167" d="M211.482,105.459H185.624V78.354h25.858Zm-22.963-3.026h20.067V81.38H188.519Z" transform="translate(521.274 202.733)" fill="#7bead4" stroke="#1f1717" stroke-width="1"/>
        <rect id="Rectangle_73" data-name="Rectangle 73" width="22.963" height="24.079" transform="translate(731.308 282.601)" fill="#fff" stroke="#7bead4" stroke-width="1"/>
        <path id="Path_168" data-name="Path 168" d="M281.087,105.459H255.229V78.354h25.858Zm-22.962-3.026h20.067V81.38H258.125Z" transform="translate(474.631 202.733)" fill="#7bead4" stroke="#1f1717" stroke-width="1"/>
        <rect id="Rectangle_74" data-name="Rectangle 74" width="22.962" height="24.079" transform="translate(754.271 282.601)" fill="#fff" stroke="#7bead4" stroke-width="1"/>
        <path id="Path_169" data-name="Path 169" d="M350.691,105.459H324.833V78.354h25.858Zm-22.962-3.026H347.8V81.38H327.729Z" transform="translate(427.99 202.733)" fill="#7bead4" stroke="#1f1717" stroke-width="1"/>
        <rect id="Rectangle_75" data-name="Rectangle 75" width="22.962" height="24.079" transform="translate(777.233 282.601)" fill="#fff" stroke="#7bead4" stroke-width="1"/>
        <path id="Path_170" data-name="Path 170" d="M420.3,105.459H394.439V78.354H420.3Zm-22.963-3.026H417.4V81.38H397.334Z" transform="translate(381.347 202.733)" fill="#7bead4" stroke="#1f1717" stroke-width="1"/>
        <path id="Path_171" data-name="Path 171" d="M468.431,82.941h22.962V107.02H468.431V82.941" transform="translate(331.765 199.66)" fill="#fff" stroke="#7bead4" stroke-width="1"/>
        <path id="Path_172" data-name="Path 172" d="M518.122,82.941h-9.8V107.02h9.8V82.941" transform="translate(305.036 199.66)" fill="rgba(30,235,202,0.17)" stroke="#7bead4" stroke-width="1"/>
        <path id="Path_173" data-name="Path 173" d="M489.9,105.459H464.041V78.354H489.9Zm-22.963-3.026H487V81.38H466.937Z" transform="translate(334.706 202.733)" fill="#7bead4" stroke="#1f1717" stroke-width="1"/>
        <line id="Line_22" data-name="Line 22" y2="27.489" transform="translate(763.488 386.373)" fill="#fff" stroke="#7bead4" stroke-width="1"/>
        <path id="Path_174" data-name="Path 174" d="M346.46,390.328v27.489a3.531,3.531,0,0,0,7.061,0V390.328a3.531,3.531,0,0,0-7.061,0" transform="translate(413.497 -3.955)" fill="#ee2d79" stroke="#1f1717" stroke-width="1"/>
        <line id="Line_23" data-name="Line 23" x2="27.489" transform="translate(749.744 400.118)" fill="#fff" stroke="#7bead4" stroke-width="1"/>
        <path id="Path_175" data-name="Path 175" d="M308.329,435.521h27.49a3.531,3.531,0,0,0,0-7.061h-27.49a3.531,3.531,0,0,0,0,7.061" transform="translate(441.415 -31.873)" fill="#ee2d79" stroke="#1f1717" stroke-width="1"/>
      </g>
    </g>
    <g id="Group_110" data-name="Group 110">
      <g id="Group_109" data-name="Group 109">
        <g id="Group_108" data-name="Group 108">
          <path id="Path_176" data-name="Path 176" d="M857.894,393.814l-46.514-6.682a16.329,16.329,0,0,0-4.645,32.327l46.514,6.682a16.329,16.329,0,1,0,4.644-32.327m-4.327,30.118-46.514-6.682a14.1,14.1,0,0,1,4.01-27.91l46.513,6.682a14.1,14.1,0,1,1-4.009,27.91" transform="translate(81.768 40.617)" fill="#7bead4" stroke="#1f1717" stroke-width="1"/>
          <path id="Path_177" data-name="Path 177" d="M989.879,430.257a14.118,14.118,0,0,1-15.964,11.953l-22.152-3.182,4.009-27.91,22.153,3.183a14.117,14.117,0,0,1,11.955,15.956" transform="translate(-38.579 22.338)" fill="#7bead4" stroke="#1f1717" stroke-width="1"/>
          <path id="Path_178" data-name="Path 178" d="M840.158,399.463l-4.01,27.91L814,424.191a14.1,14.1,0,0,1,4.01-27.91l22.153,3.182" transform="translate(74.826 33.676)" fill="#fff"/>
          <path id="Path_179" data-name="Path 179" d="M802.055,443.979l-.005.036a14.183,14.183,0,0,0-.145,2.014,14.183,14.183,0,0,1,.145-2.014l.005-.036m.006-.04,0,.027,0-.027m.082-.492q-.044.24-.081.483c.024-.162.051-.324.081-.483m0-.02,0,.015,0-.015" transform="translate(74.826 -2.112)" fill="#5e67af"/>
          <path id="Path_180" data-name="Path 180" d="M802.466,438.029a12.309,12.309,0,0,0-.319,1.313l0,.015v.005c-.029.16-.057.321-.081.483v.009l0,.027,0,.012-.005.036A14.091,14.091,0,0,0,814,455.893l20.252,2.909a16.235,16.235,0,0,1,2.29-2.437l.164-1.141-22.153-3.182a14.1,14.1,0,0,1-12.083-14.014" transform="translate(74.826 1.973)" fill="#eff0f7"/>
          <path id="Path_181" data-name="Path 181" d="M907.274,426.782l4.579.658a1.116,1.116,0,1,0,.317-2.209l-4.579-.658a1.116,1.116,0,0,0-.317,2.209" transform="translate(-4.188 12.164)" fill="#7bead4" stroke="#1f1717" stroke-width="1"/>
          <path id="Path_182" data-name="Path 182" d="M825.87,425.495a6.648,6.648,0,0,1,7.533-5.64l6.159.885a1.116,1.116,0,0,0,.317-2.209l-6.16-.885a8.882,8.882,0,0,0-10.058,7.531,1.116,1.116,0,1,0,2.209.317Z" transform="translate(58.371 17.467)" fill="#7bead4" stroke="#1f1717" stroke-width="1"/>
          <path id="Path_183" data-name="Path 183" d="M948.565,405.591l-4.327,30.119-2.209-.317,4.327-30.119,2.209.317" transform="translate(-31.213 26.76)" fill="#7bead4" stroke="#1f1717" stroke-width="1"/>
          <path id="Path_184" data-name="Path 184" d="M944.445,508.724l-.164,1.141h0l.164-1.14h0" transform="translate(-32.918 -51.526)" fill="#b4b8d0"/>
          <path id="Path_185" data-name="Path 185" d="M944.445,508.724h0l-.164,1.141h0l.164-1.141h0" transform="translate(-32.918 -51.526)" fill="#b4b8d0"/>
          <path id="Path_186" data-name="Path 186" d="M981.952,513.44h0l2.006,2.679h0l-2.006-2.679m-26.314-2.232-2.125,1.591,2.125-1.591" transform="translate(-39.904 -53.405)" fill="#525b9f"/>
          <path id="Path_187" data-name="Path 187" d="M944.446,508.724l-.164,1.14q.438-.379.908-.731l.338-.253-1.083-.156" transform="translate(-32.918 -51.525)" fill="#525b9f"/>
          <path id="Path_188" data-name="Path 188" d="M965.3,384.494l-37.615,28.165A16.33,16.33,0,0,0,947.264,438.8l37.616-28.165A16.33,16.33,0,1,0,965.3,384.494m18.238,24.357-37.616,28.165a14.1,14.1,0,0,1-16.9-22.57l37.616-28.165a14.1,14.1,0,1,1,16.9,22.57" transform="translate(-15.418 44.948)" fill="#7bead4" stroke="#1f1717" stroke-width="1"/>
          <path id="Path_189" data-name="Path 189" d="M1072.155,396.051a14.118,14.118,0,0,1-2.836,19.74L1051.4,429.206l-16.9-22.571,17.915-13.414a14.115,14.115,0,0,1,19.735,2.83" transform="translate(-101.194 38.007)" fill="#7bead4" stroke="#1f1717" stroke-width="1"/>
          <path id="Path_190" data-name="Path 190" d="M953.876,462.6l16.9,22.57-17.914,13.414a14.1,14.1,0,0,1-16.9-22.571L953.876,462.6" transform="translate(-22.352 -16.624)" fill="#fff"/>
          <path id="Path_191" data-name="Path 191" d="M940.245,596.592q.175.259.364.513-.188-.254-.364-.513" transform="translate(-29.863 -118.02)" fill="#5e67af"/>
          <path id="Path_192" data-name="Path 192" d="M941.759,598.724l.025.033-.025-.033" transform="translate(-31.009 -119.633)" fill="#5e67af"/>
          <path id="Path_193" data-name="Path 193" d="M973.91,542.59,956,556a14.1,14.1,0,0,1-18.453-1.365,12.242,12.242,0,0,0,.658,1.087q.175.259.364.513l0,.006.025.033h0a14.108,14.108,0,0,0,19.734,2.84L976.241,545.7l-2.331-3.114" transform="translate(-27.818 -77.154)" fill="#eff0f7"/>
          <path id="Path_194" data-name="Path 194" d="M1003.905,499.2l3.7-2.773a1.116,1.116,0,1,0-1.337-1.786l-3.7,2.773a1.116,1.116,0,1,0,1.337,1.786" transform="translate(-76.688 -40.697)" fill="#7bead4" stroke="#1f1717" stroke-width="1"/>
          <path id="Path_195" data-name="Path 195" d="M955.282,533.7a6.661,6.661,0,0,1,1.338-9.314l4.98-3.729a1.116,1.116,0,1,0-1.337-1.786l-4.981,3.729a8.892,8.892,0,0,0-1.787,12.438,1.116,1.116,0,1,0,1.786-1.337Z" transform="translate(-38.552 -59.032)" fill="#7bead4" stroke="#1f1717" stroke-width="1"/>
          <path id="Path_196" data-name="Path 196" d="M1026.2,453.434l18.238,24.357-1.786,1.337-18.238-24.356,1.786-1.338" transform="translate(-93.556 -9.684)" fill="#7bead4" stroke="#1f1717" stroke-width="1"/>
          <path id="Path_197" data-name="Path 197" d="M1131.559,495.473l-14.5,10.855,4.735-3.545,9.762-7.31h0" transform="translate(-163.67 -41.498)" fill="#b4b8d0"/>
          <path id="Path_198" data-name="Path 198" d="M1146.29,495.474l-9.762,7.31,9.689-7.254.074-.055" transform="translate(-178.401 -41.499)" fill="#525b9f"/>
          <path id="Path_199" data-name="Path 199" d="M1115.886,408.525A14.1,14.1,0,0,1,1112,426.617L1094.4,439.8l2.332,3.114,3.182-2.382,14.5-10.855a14.112,14.112,0,0,0,2.756-19.68,12.812,12.812,0,0,0-1.277-1.469" transform="translate(-146.518 24.301)" fill="#7bead4" stroke="#1f1717" stroke-width="1"/>
          <path id="Path_200" data-name="Path 200" d="M1087.053,542.59h0l2.331,3.114-2.331-3.114" transform="translate(-140.961 -77.154)" fill="#b4b8d0"/>
          <path id="Path_201" data-name="Path 201" d="M1088.839,537.092l-1.786,1.337,2.332,3.114,1.786-1.337-2.332-3.114" transform="translate(-139.961 -71.993)" fill="#7bead4" stroke="#1f1717" stroke-width="1"/>
        </g>
      </g>
    </g>
  </g>
</svg>
