<svg xmlns="http://www.w3.org/2000/svg" width="154.553" height="221.973" viewBox="0 0 154.553 221.973">
  <g id="Group_112" data-name="Group 112" transform="translate(-268.724 -265.527)">
    <g id="Group_101" data-name="Group 101" transform="translate(-448.5 -7)">
      <g id="Group_100" data-name="Group 100">
        <g id="Group_99" data-name="Group 99">
          <g id="Group_98" data-name="Group 98">
            <g id="Group_97" data-name="Group 97">
              <g id="Group_102" data-name="Group 102">
                <circle id="Ellipse_44" data-name="Ellipse 44" cx="13.151" cy="13.151" r="13.151" transform="matrix(0.02, -1, 1, 0.02, 781.095, 300.646)" fill="#fff" stroke="#1f1717" stroke-width="1"/>
                <path id="Path_306" data-name="Path 306" d="M548.69,2188.633a14.727,14.727,0,1,1,14.728-14.727A14.744,14.744,0,0,1,548.69,2188.633Zm0-26.3a11.576,11.576,0,1,0,11.577,11.576A11.589,11.589,0,0,0,548.69,2162.33Z" transform="translate(245.81 -1886.152)" fill="#1f1717" stroke="#1f1717" stroke-width="1"/>
                <rect id="Rectangle_84" data-name="Rectangle 84" width="50.141" height="18.494" transform="translate(769.43 287.342)" fill="#fff" stroke="#1f1717" stroke-width="1"/>
                <path id="Path_307" data-name="Path 307" d="M498.556,2425.063H367.665a9.756,9.756,0,0,1-9.755-9.755V2239.741a9.756,9.756,0,0,1,9.755-9.755H498.556a9.755,9.755,0,0,1,9.755,9.755v175.566a9.755,9.755,0,0,1-9.755,9.755" transform="translate(361.389 -1932.637)" fill="#fff" stroke="#1f1717" stroke-width="1"/>
                <path id="Path_308" data-name="Path 308" d="M498.57,2229.992h-1.827v173.919a9.759,9.759,0,0,1-9.757,9.757H357.925v1.638a9.749,9.749,0,0,0,9.747,9.757h130.9a9.749,9.749,0,0,0,9.747-9.757V2239.749a9.75,9.75,0,0,0-9.747-9.757" transform="translate(361.38 -1932.641)" fill="rgba(30,235,202,0.24)" stroke="#1f1717" stroke-width="1"/>
                <path id="Path_309" data-name="Path 309" d="M495.545,2423.627H364.654a11.344,11.344,0,0,1-11.331-11.331V2236.73a11.344,11.344,0,0,1,11.331-11.33H495.545a11.344,11.344,0,0,1,11.331,11.33V2412.3A11.344,11.344,0,0,1,495.545,2423.627ZM364.654,2228.551a8.19,8.19,0,0,0-8.18,8.179V2412.3a8.19,8.19,0,0,0,8.18,8.18H495.545a8.19,8.19,0,0,0,8.18-8.18V2236.73a8.19,8.19,0,0,0-8.18-8.179Z" transform="translate(364.401 -1929.627)" fill="#1f1717" stroke="#1f1717" stroke-width="1"/>
                <path id="Path_310" data-name="Path 310" d="M511.633,2514.1H404.981a1.576,1.576,0,1,1,0-3.151H511.633a1.576,1.576,0,0,1,0,3.151Z" transform="translate(331.522 -2117.088)" fill="#7bead4" stroke="#1f1717" stroke-width="1"/>
                <path id="Path_311" data-name="Path 311" d="M459.118,2547.333H404.981a1.576,1.576,0,1,1,0-3.151h54.138a1.576,1.576,0,1,1,0,3.151Z" transform="translate(331.522 -2138.908)" fill="#7bead4" stroke="#1f1717" stroke-width="1"/>
                <path id="Path_312" data-name="Path 312" d="M480.124,2586.283H404.981a1.575,1.575,0,1,1,0-3.151h75.144a1.575,1.575,0,1,1,0,3.151Z" transform="translate(331.522 -2164.48)" fill="#7bead4" stroke="#1f1717" stroke-width="1"/>
                <path id="Path_313" data-name="Path 313" d="M511.633,2613.4H404.981a1.575,1.575,0,1,1,0-3.151H511.633a1.575,1.575,0,0,1,0,3.151Z" transform="translate(331.522 -2182.285)" fill="#7bead4" stroke="#1f1717" stroke-width="1"/>
                <path id="Path_314" data-name="Path 314" d="M438.112,2657.276H404.981a1.575,1.575,0,1,1,0-3.151h33.131a1.575,1.575,0,1,1,0,3.151Z" transform="translate(331.522 -2211.087)" fill="#7bead4" stroke="#1f1717" stroke-width="1"/>
                <path id="Path_315" data-name="Path 315" d="M692.3,2701.146H680.173a1.575,1.575,0,1,1,0-3.151H692.3a1.575,1.575,0,0,1,0,3.151Z" transform="translate(150.857 -2239.888)" fill="#7bead4" stroke="#1f1717" stroke-width="1"/>
                <path id="Path_316" data-name="Path 316" d="M419.77,2307.3a2.29,2.29,0,0,1-2.289-2.291V2287.18a2.29,2.29,0,0,1,4.579,0v17.825A2.291,2.291,0,0,1,419.77,2307.3Z" transform="translate(322.281 -1968.683)" fill="#ee2d79" stroke="#1f1717" stroke-width="1"/>
                <path id="Path_317" data-name="Path 317" d="M411.648,2315.418H393.822a2.289,2.289,0,0,1,0-4.579h17.826a2.289,2.289,0,1,1,0,4.579Z" transform="translate(339.316 -1985.718)" fill="#ee2d79" stroke="#1f1717" stroke-width="1"/>
                <path id="Path_318" data-name="Path 318" d="M552.557,2217.913H499.265v-21.645h53.292Zm-50.141-3.151h46.99v-15.343h-46.99Z" transform="translate(268.589 -1910.501)" fill="#1f1717" stroke="#1f1717" stroke-width="1"/>
                <path id="Path_319" data-name="Path 319" d="M511.633,2387.267H404.981a1.576,1.576,0,1,1,0-3.151H511.633a1.576,1.576,0,0,1,0,3.151Z" transform="translate(331.522 -2033.824)" fill="#7bead4" stroke="#1f1717" stroke-width="1"/>
                <path id="Path_320" data-name="Path 320" d="M511.633,2420.5H404.981a1.576,1.576,0,1,1,0-3.151H511.633a1.576,1.576,0,0,1,0,3.151Z" transform="translate(331.522 -2055.645)" fill="#7bead4" stroke="#1f1717" stroke-width="1"/>
                <path id="Path_321" data-name="Path 321" d="M438.112,2453.739H404.981a1.575,1.575,0,1,1,0-3.151h33.131a1.575,1.575,0,1,1,0,3.151Z" transform="translate(331.522 -2077.464)" fill="#7bead4" stroke="#1f1717" stroke-width="1"/>
                <path id="Path_322" data-name="Path 322" d="M480.124,2483.919H404.981a1.575,1.575,0,1,1,0-3.151h75.144a1.575,1.575,0,1,1,0,3.151Z" transform="translate(331.522 -2097.277)" fill="#7bead4" stroke="#1f1717" stroke-width="1"/>
              </g>
            </g>
          </g>
        </g>
      </g>
    </g>
  </g>
</svg>
