<svg xmlns="http://www.w3.org/2000/svg" width="198.77" height="228.477" viewBox="0 0 198.77 228.477">
  <g id="Group_115" data-name="Group 115" transform="translate(-1278.078 -261.023)">
    <g id="Group_114" data-name="Group 114">
      <g id="Group_113" data-name="Group 113">
        <path id="Path_365" data-name="Path 365" d="M-1131.158,161.124a96.885,96.885,0,0,1-96.885,96.885,96.883,96.883,0,0,1-96.885-96.885,96.883,96.883,0,0,1,96.885-96.885A96.882,96.882,0,0,1-1131.158,161.124Z" transform="translate(2605.506 228.991)" fill="none" stroke="#000" stroke-width="5"/>
        <path id="Path_366" data-name="Path 366" d="M-959.27-171.6h28.67c2.73,0,4.943.972,4.943,2.172v9.991c0,1.2-2.213,2.172-4.943,2.172h-28.67c-2.73,0-4.943-.972-4.943-2.172v-9.991c0-1.2,2.213-2.172,4.943-2.172" transform="translate(2321.904 432.625)" fill="#7bead4"/>
        <path id="Path_367" data-name="Path 367" d="M-908.715-22.463h14.829V-3.85h-14.829Z" transform="translate(2278.27 297.08)"/>
        <path id="Path_368" data-name="Path 368" d="M3.5,0H23.8c1.933,0,3.5,1.06,3.5,2.368V13.261c0,1.308-1.567,2.368-3.5,2.368H3.5c-1.933,0-3.5-1.06-3.5-2.368V2.368C0,1.06,1.567,0,3.5,0" transform="translate(1283.158 309.561) rotate(-45)" fill="#7bead4"/>
        <path id="Path_369" data-name="Path 369" d="M0,0H10.5V11.155H0Z" transform="translate(1299.778 314.3) rotate(-45)"/>
        <path id="Path_370" data-name="Path 370" d="M-88.882,12.661A7.613,7.613,0,0,1-96.5,20.274a7.613,7.613,0,0,1-7.613-7.613A7.613,7.613,0,0,1-96.5,5.048a7.613,7.613,0,0,1,7.613,7.613Z" transform="translate(1473.962 377.453)" fill="none" stroke="#1f1717" stroke-width="15"/>
        <path id="Path_371" data-name="Path 371" d="M-488.89-52.982l1.487-54.2,1.452-2.782,1.4,2.782,1.39,54.2Z" transform="translate(1863.479 432.129)" fill="#1f1717" stroke="#1f1717" stroke-width="8"/>
        <path id="Path_372" data-name="Path 372" d="M-475.31-186.47v9.429" transform="translate(1852.802 492.281)" fill="none" stroke="#7bead4" stroke-width="9.156"/>
        <path id="Path_373" data-name="Path 373" d="M-116.277,207.24h-9.429" transform="translate(1577.935 182.738)" fill="none" stroke="#7bead4" stroke-width="9.156"/>
        <path id="Path_374" data-name="Path 374" d="M-475.31,566.274v-9.429" transform="translate(1852.802 -92.13)" fill="none" stroke="#7bead4" stroke-width="9.156"/>
        <path id="Path_375" data-name="Path 375" d="M-869.03,207.24h9.429" transform="translate(2162.353 182.738)" fill="none" stroke="#7bead4" stroke-width="9.156"/>
        <path id="Path_376" data-name="Path 376" d="M-295.8-133.72l-4.714,8.165" transform="translate(1715.373 450.808)" fill="none" stroke="#7bead4" stroke-width="9.156"/>
        <path id="Path_377" data-name="Path 377" d="M-164.381,10.384l-8.165,4.714" transform="translate(1614.762 337.51)" fill="none" stroke="#7bead4" stroke-width="9.156"/>
        <path id="Path_378" data-name="Path 378" d="M-164.381,386.761l-8.165-4.714" transform="translate(1614.762 45.301)" fill="none" stroke="#7bead4" stroke-width="9.156"/>
        <path id="Path_379" data-name="Path 379" d="M-295.8,518.179l-4.714-8.166" transform="translate(1715.373 -55.309)" fill="none" stroke="#7bead4" stroke-width="9.156"/>
        <path id="Path_380" data-name="Path 380" d="M-672.17,518.179l4.714-8.166" transform="translate(2007.577 -55.309)" fill="none" stroke="#7bead4" stroke-width="9.156"/>
        <path id="Path_381" data-name="Path 381" d="M-816.28,386.761l8.166-4.714" transform="translate(2120.88 45.301)" fill="none" stroke="#7bead4" stroke-width="9.156"/>
        <path id="Path_382" data-name="Path 382" d="M-816.28,10.384l8.165,4.714" transform="translate(2120.88 337.51)" fill="none" stroke="#7bead4" stroke-width="9.156"/>
        <path id="Path_383" data-name="Path 383" d="M-672.17-133.72l4.714,8.166" transform="translate(2007.577 450.808)" fill="none" stroke="#000" stroke-width="9.156"/>
        <path id="Path_384" data-name="Path 384" d="M-672.17-133.72l4.714,8.166" transform="translate(2007.577 450.808)" fill="none" stroke="#7bead4" stroke-width="9.156"/>
      </g>
    </g>
  </g>
</svg>
